<?xml version="1.0" encoding="UTF-8" standalone="no"?>
<svg
   viewBox="0 0 448 512"
   version="1.1"
   id="svg1"
   sodipodi:docname="square-steam.svg"
   inkscape:version="1.4 (e7c3feb100, 2024-10-09)"
   xmlns:inkscape="http://www.inkscape.org/namespaces/inkscape"
   xmlns:sodipodi="http://sodipodi.sourceforge.net/DTD/sodipodi-0.dtd"
   xmlns="http://www.w3.org/2000/svg"
   xmlns:svg="http://www.w3.org/2000/svg">
  <defs
     id="defs1" />
  <sodipodi:namedview
     id="namedview1"
     pagecolor="#ffffff"
     bordercolor="#000000"
     borderopacity="0.25"
     inkscape:showpageshadow="2"
     inkscape:pageopacity="0.0"
     inkscape:pagecheckerboard="0"
     inkscape:deskcolor="#d1d1d1"
     inkscape:zoom="2.2597656"
     inkscape:cx="223.91703"
     inkscape:cy="256"
     inkscape:window-width="2560"
     inkscape:window-height="1368"
     inkscape:window-x="0"
     inkscape:window-y="0"
     inkscape:window-maximized="1"
     inkscape:current-layer="svg1" />
  <!--! Font Awesome Free 6.6.0 by @fontawesome - https://fontawesome.com License - https://fontawesome.com/license/free (Icons: CC BY 4.0, Fonts: SIL OFL 1.1, Code: MIT License) Copyright 2024 Fonticons, Inc. -->
  <path
     d="M165.6 309.1c18.6 7.7 27.3 28.9 19.6 47.4s-29 27.2-47.6 19.4l-28.5-11.8c5 10.6 13.8 19.4 25.4 24.2c25.2 10.5 54.1-1.4 64.6-26.5c5.1-12.1 5.1-25.5 .1-37.7c-5.1-12.1-14.5-21.6-26.7-26.7c-12.1-5-25-4.8-36.4-.5l29.5 12.2zM448 96c0-35.3-28.7-64-64-64H64C28.7 32 0 60.7 0 96V240.7l116.6 48.1c12-8.2 26.2-12.1 40.7-11.3l55.4-80.2v-1.1c0-48.2 39.3-87.5 87.6-87.5s87.6 39.3 87.6 87.5c0 49.2-40.9 88.7-89.6 87.5l-79 56.3c1.6 38.5-29.1 68.8-65.7 68.8c-31.8 0-58.5-22.7-64.5-52.7L0 319.2V416c0 35.3 28.7 64 64 64H384c35.3 0 64-28.7 64-64V96zM241.9 196.2a58.4 58.4 0 1 0 116.8 0 58.4 58.4 0 1 0 -116.8 0zm14.6-.1a43.9 43.9 0 1 1 87.8 0 43.9 43.9 0 1 1 -87.8 0z"
     id="path1"
     style="fill:#ffffff" />
</svg>
